<svg width="61" height="56" viewBox="0 0 61 56" fill="none" xmlns="http://www.w3.org/2000/svg">
<path d="M14.2 2.3C13 3.6 12 5.8 12 7.3C12 9.7 11.6 10 8.7 10C1.2 10 -2.3 19.8 3.4 24.6C5.9 26.8 6.9 27 18.1 27H30V16.9C30 3.4 28.1 0.0999996 20.4 -4.02331e-07C17.4 -4.02331e-07 15.8 0.6 14.2 2.3Z" fill="#FFAB64"/>
<path d="M35.2 0.7C32.3 1.8 31 6.9 31 17V27H43C54.5 27 55.2 26.9 57.5 24.5C62.9 19.2 59.4 10 51.9 10C49.5 10 49 9.6 49 7.5C49 3.5 44.8 -4.02331e-07 40.3 0.0999996C38.2 0.0999996 35.9 0.4 35.2 0.7Z" fill="#FFAB64"/>
<path d="M5.4 29.4C1.2 31.2 -0.699999 35.9 1 40C2.4 43.5 7.2 46.4 10.1 45.7C11.6 45.3 12 45.7 12 47.5C12 51.2 13 53 16.2 54.6C20.7 56.9 25.6 55.7 28.1 51.7C29.7 49 30 47 29.8 38.5L29.5 28.5L19 28.3C11.9 28.1 7.5 28.5 5.4 29.4Z" fill="#FFAB64"/>
<path d="M31 38.9C31 48.9 31.2 50.1 33.3 52.5C34.6 54 37 55.3 39.1 55.6C43.7 56.4 49 52.3 49 47.9C49 45.8 49.4 45.2 50.5 45.6C53.2 46.7 58.2 43.8 59.6 40.4C60.6 37.9 60.7 36.4 59.8 34C58.2 29.3 54.2 28 41.5 28H31V38.9Z" fill="#FFAB64"/>
</svg>
